<svg width="40" height="40" viewBox="0 0 40 40" fill="none" xmlns="http://www.w3.org/2000/svg">
  <!-- Wivvy logo: Abstract representation of data transforming into emotional insight -->
  <g>
    <!-- Left side: Data bars -->
    <g>
      <rect x="8" y="22" width="3" height="8" fill="#6366f1" opacity="0.4" />
      <rect x="13" y="18" width="3" height="12" fill="#6366f1" opacity="0.6" />
      <rect x="18" y="14" width="3" height="16" fill="#6366f1" opacity="0.8" />
    </g>
    
    <!-- Right side: Heart shape -->
    <g transform="translate(24, 14)">
      <path
        d="M 6 2
           C 6 0.5, 4.5 0, 3 0
           C 1.5 0, 0 0.5, 0 2
           C 0 3.5, 3 7, 6 10
           C 9 7, 12 3.5, 12 2
           C 12 0.5, 10.5 0, 9 0
           C 7.5 0, 6 0.5, 6 2 Z"
        fill="#ec4899"
        opacity="0.9"
      />
    </g>
    
    <!-- Transformation indicator: gradient fade -->
    <defs>
      <linearGradient id="fadeGradient" x1="0%" y1="0%" x2="100%" y2="0%">
        <stop offset="0%" style="stop-color:#6366f1;stop-opacity:0.8" />
        <stop offset="100%" style="stop-color:#ec4899;stop-opacity:0" />
      </linearGradient>
    </defs>
    
    <!-- Connecting element -->
    <rect x="21" y="20" width="3" height="2" fill="url(#fadeGradient)" />
  </g>
</svg>