<svg width="64" height="64" viewBox="0 0 64 64" fill="none" xmlns="http://www.w3.org/2000/svg">
  <g stroke="currentColor" stroke-width="1.8" stroke-linecap="round" stroke-linejoin="round">
    <!-- Top person -->
    <circle cx="32" cy="14" r="4"/>
    <path d="M25.5 24C26.6 20.7 29.1 19 32 19C34.9 19 37.4 20.7 38.5 24"/>

    <!-- Bottom left person -->
    <circle cx="18" cy="42" r="4"/>
    <path d="M11.5 52C12.6 48.7 15.1 47 18 47C20.9 47 23.4 48.7 24.5 52"/>

    <!-- Bottom right person -->
    <circle cx="46" cy="42" r="4"/>
    <path d="M39.5 52C40.6 48.7 43.1 47 46 47C48.9 47 51.4 48.7 52.5 52"/>

    <!-- Triangle connections -->
    <path d="M27.5 23.5L21.5 37.5"/>
    <path d="M36.5 23.5L42.5 37.5"/>
    <path d="M23 44H41"/>

    <!-- Growth arrow in center -->
    <path d="M32 39V30"/>
    <path d="M28.5 33.5L32 30L35.5 33.5"/>
  </g>
</svg>
